<svg width="182" height="26" viewBox="0 0 182 26" fill="none" xmlns="http://www.w3.org/2000/svg">
<path d="M7.748 20.243C6.326 20.243 5.003 20.081 3.779 19.757C2.555 19.415 1.556 18.938 0.782 18.326C0.512 18.128 0.314 17.921 0.188 17.705C0.0800001 17.471 0.0260001 17.183 0.0260001 16.841C0.0260001 16.391 0.161 15.995 0.431 15.653C0.719 15.311 1.043 15.14 1.403 15.14C1.601 15.14 1.79 15.176 1.97 15.248C2.168 15.302 2.402 15.41 2.672 15.572C3.446 16.058 4.229 16.418 5.021 16.652C5.813 16.868 6.686 16.976 7.64 16.976C8.828 16.976 9.737 16.778 10.367 16.382C10.997 15.986 11.312 15.419 11.312 14.681C11.312 14.123 11.015 13.673 10.421 13.331C9.845 12.989 8.81 12.665 7.316 12.359C5.642 12.017 4.301 11.603 3.293 11.117C2.303 10.631 1.574 10.028 1.106 9.308C0.656 8.588 0.431 7.715 0.431 6.689C0.431 5.555 0.755 4.538 1.403 3.638C2.069 2.72 2.978 2.009 4.13 1.505C5.3 0.982999 6.614 0.721999 8.072 0.721999C10.628 0.721999 12.734 1.361 14.39 2.639C14.66 2.855 14.849 3.08 14.957 3.314C15.083 3.53 15.146 3.8 15.146 4.124C15.146 4.574 15.002 4.97 14.714 5.312C14.444 5.654 14.129 5.825 13.769 5.825C13.571 5.825 13.382 5.798 13.202 5.744C13.04 5.69 12.806 5.573 12.5 5.393C11.762 4.925 11.078 4.574 10.448 4.34C9.836 4.106 9.053 3.989 8.099 3.989C7.001 3.989 6.137 4.205 5.507 4.637C4.877 5.051 4.562 5.627 4.562 6.365C4.562 6.797 4.679 7.157 4.913 7.445C5.165 7.715 5.57 7.958 6.128 8.174C6.704 8.39 7.514 8.615 8.558 8.849C11.006 9.389 12.761 10.082 13.823 10.928C14.903 11.774 15.443 12.935 15.443 14.411C15.443 15.563 15.119 16.58 14.471 17.462C13.841 18.344 12.941 19.028 11.771 19.514C10.619 20 9.278 20.243 7.748 20.243ZM26.5499 6.419C29.6279 6.419 31.1669 8.282 31.1669 12.008V18.245C31.1669 18.839 30.9779 19.307 30.5999 19.649C30.2399 19.991 29.7449 20.162 29.1149 20.162C28.4849 20.162 27.9899 19.991 27.6299 19.649C27.2699 19.307 27.0899 18.839 27.0899 18.245V11.954C27.0899 11.162 26.9189 10.577 26.5769 10.199C26.2529 9.803 25.7399 9.605 25.0379 9.605C24.1919 9.605 23.5079 9.875 22.9859 10.415C22.4819 10.955 22.2299 11.675 22.2299 12.575V18.245C22.2299 18.839 22.0499 19.307 21.6899 19.649C21.3299 19.991 20.8349 20.162 20.2049 20.162C19.5749 20.162 19.0709 19.991 18.6929 19.649C18.3329 19.307 18.1529 18.839 18.1529 18.245V2.693C18.1529 2.135 18.3419 1.685 18.7199 1.343C19.1159 1.001 19.6289 0.829999 20.2589 0.829999C20.8529 0.829999 21.3299 0.991999 21.6899 1.316C22.0499 1.64 22.2299 2.072 22.2299 2.612V8.498C22.6979 7.814 23.3009 7.301 24.0389 6.959C24.7769 6.599 25.6139 6.419 26.5499 6.419ZM40.5825 20.216C39.1785 20.216 37.9455 19.937 36.8835 19.379C35.8215 18.803 35.0025 18.002 34.4265 16.976C33.8505 15.932 33.5625 14.708 33.5625 13.304C33.5625 11.9 33.8505 10.685 34.4265 9.659C35.0025 8.615 35.8215 7.814 36.8835 7.256C37.9455 6.698 39.1785 6.419 40.5825 6.419C41.9865 6.419 43.2195 6.698 44.2815 7.256C45.3435 7.814 46.1625 8.615 46.7385 9.659C47.3145 10.685 47.6025 11.9 47.6025 13.304C47.6025 14.708 47.3145 15.932 46.7385 16.976C46.1625 18.002 45.3435 18.803 44.2815 19.379C43.2195 19.937 41.9865 20.216 40.5825 20.216ZM40.5825 17.111C42.5625 17.111 43.5525 15.842 43.5525 13.304C43.5525 12.026 43.2915 11.072 42.7695 10.442C42.2655 9.812 41.5365 9.497 40.5825 9.497C38.6025 9.497 37.6125 10.766 37.6125 13.304C37.6125 15.842 38.6025 17.111 40.5825 17.111ZM58.2916 6.419C59.4256 6.419 60.4336 6.716 61.3156 7.31C62.2156 7.886 62.9086 8.705 63.3946 9.767C63.8986 10.811 64.1506 12.017 64.1506 13.385C64.1506 14.753 63.8986 15.959 63.3946 17.003C62.9086 18.029 62.2246 18.821 61.3426 19.379C60.4606 19.937 59.4436 20.216 58.2916 20.216C57.3916 20.216 56.5726 20.036 55.8346 19.676C55.1146 19.298 54.5566 18.776 54.1606 18.11V23.213C54.1606 23.753 53.9806 24.185 53.6206 24.509C53.2606 24.833 52.7836 24.995 52.1896 24.995C51.5596 24.995 51.0466 24.824 50.6506 24.482C50.2726 24.14 50.0836 23.69 50.0836 23.132V8.39C50.0836 7.814 50.2636 7.355 50.6236 7.013C51.0016 6.653 51.4966 6.473 52.1086 6.473C52.7206 6.473 53.2066 6.653 53.5666 7.013C53.9266 7.355 54.1066 7.814 54.1066 8.39V8.606C54.5026 7.922 55.0696 7.391 55.8076 7.013C56.5456 6.617 57.3736 6.419 58.2916 6.419ZM57.1036 17.111C58.0576 17.111 58.7956 16.796 59.3176 16.166C59.8396 15.518 60.1006 14.591 60.1006 13.385C60.1006 12.161 59.8396 11.216 59.3176 10.55C58.7956 9.866 58.0576 9.524 57.1036 9.524C56.1496 9.524 55.4116 9.857 54.8896 10.523C54.3676 11.171 54.1066 12.107 54.1066 13.331C54.1066 14.537 54.3676 15.473 54.8896 16.139C55.4116 16.787 56.1496 17.111 57.1036 17.111Z" fill="#0575E6"/>
<path d="M84.7052 17.435C84.8492 17.759 84.9212 18.047 84.9212 18.299C84.9212 18.803 84.7142 19.235 84.3002 19.595C83.9042 19.937 83.4452 20.108 82.9232 20.108C82.5812 20.108 82.2572 20.018 81.9512 19.838C81.6452 19.64 81.4112 19.352 81.2492 18.974L79.8182 15.788H70.6652L69.2342 18.974C69.0722 19.352 68.8382 19.64 68.5322 19.838C68.2442 20.018 67.9202 20.108 67.5602 20.108C67.0382 20.108 66.5702 19.937 66.1562 19.595C65.7422 19.235 65.5352 18.803 65.5352 18.299C65.5352 18.047 65.6072 17.759 65.7512 17.435L73.0412 2.126C73.2392 1.694 73.5362 1.37 73.9322 1.154C74.3282 0.919999 74.7512 0.802999 75.2012 0.802999C75.6692 0.802999 76.1012 0.919999 76.4972 1.154C76.8932 1.388 77.1992 1.712 77.4152 2.126L84.7052 17.435ZM72.0962 12.602H78.3872L75.2552 5.582L72.0962 12.602ZM95.2345 6.419C96.8185 6.419 97.9975 6.887 98.7715 7.823C99.5455 8.741 99.9325 10.136 99.9325 12.008V18.245C99.9325 18.839 99.7435 19.307 99.3655 19.649C99.0055 19.991 98.5105 20.162 97.8805 20.162C97.2505 20.162 96.7555 19.991 96.3955 19.649C96.0355 19.307 95.8555 18.839 95.8555 18.245V12.197C95.8555 11.297 95.6845 10.64 95.3425 10.226C95.0185 9.812 94.5055 9.605 93.8035 9.605C92.9575 9.605 92.2735 9.875 91.7515 10.415C91.2475 10.955 90.9955 11.675 90.9955 12.575V18.245C90.9955 18.839 90.8155 19.307 90.4555 19.649C90.0955 19.991 89.6005 20.162 88.9705 20.162C88.3405 20.162 87.8365 19.991 87.4585 19.649C87.0985 19.307 86.9185 18.839 86.9185 18.245V8.336C86.9185 7.778 87.1075 7.328 87.4855 6.986C87.8815 6.644 88.3855 6.473 88.9975 6.473C89.5555 6.473 90.0055 6.644 90.3475 6.986C90.7075 7.31 90.8875 7.733 90.8875 8.255V8.633C91.3555 7.913 91.9585 7.364 92.6965 6.986C93.4525 6.608 94.2985 6.419 95.2345 6.419ZM108.943 6.419C110.887 6.419 112.327 6.896 113.263 7.85C114.199 8.786 114.667 10.226 114.667 12.17V18.272C114.667 18.866 114.496 19.334 114.154 19.676C113.812 20 113.335 20.162 112.723 20.162C112.147 20.162 111.679 19.991 111.319 19.649C110.977 19.289 110.806 18.83 110.806 18.272V18.083C110.536 18.749 110.086 19.271 109.456 19.649C108.826 20.027 108.088 20.216 107.242 20.216C106.342 20.216 105.523 20.036 104.785 19.676C104.065 19.316 103.489 18.812 103.057 18.164C102.643 17.516 102.436 16.796 102.436 16.004C102.436 15.032 102.679 14.267 103.165 13.709C103.669 13.151 104.47 12.746 105.568 12.494C106.666 12.242 108.169 12.116 110.077 12.116H110.779V11.63C110.779 10.874 110.608 10.325 110.266 9.983C109.942 9.641 109.393 9.47 108.619 9.47C107.845 9.47 106.729 9.74 105.271 10.28C104.857 10.478 104.506 10.577 104.218 10.577C103.822 10.577 103.507 10.442 103.273 10.172C103.039 9.884 102.922 9.515 102.922 9.065C102.922 8.705 103.003 8.408 103.165 8.174C103.327 7.94 103.588 7.724 103.948 7.526C104.578 7.184 105.343 6.914 106.243 6.716C107.161 6.518 108.061 6.419 108.943 6.419ZM108.133 17.408C108.925 17.408 109.564 17.147 110.05 16.625C110.536 16.085 110.779 15.392 110.779 14.546V14.087H110.32C108.862 14.087 107.836 14.204 107.242 14.438C106.666 14.672 106.378 15.095 106.378 15.707C106.378 16.211 106.54 16.625 106.864 16.949C107.206 17.255 107.629 17.408 108.133 17.408ZM119.767 20.162C119.173 20.162 118.678 20 118.282 19.676C117.904 19.352 117.715 18.875 117.715 18.245V2.747C117.715 2.117 117.904 1.64 118.282 1.316C118.678 0.991999 119.173 0.829999 119.767 0.829999C120.343 0.829999 120.82 0.991999 121.198 1.316C121.594 1.64 121.792 2.117 121.792 2.747V18.245C121.792 18.875 121.594 19.352 121.198 19.676C120.82 20 120.343 20.162 119.767 20.162ZM133.959 7.634C134.121 7.256 134.346 6.977 134.634 6.797C134.94 6.617 135.264 6.527 135.606 6.527C136.128 6.527 136.587 6.698 136.983 7.04C137.379 7.364 137.577 7.76 137.577 8.228C137.577 8.48 137.514 8.732 137.388 8.984L130.125 23.888C129.945 24.266 129.702 24.545 129.396 24.725C129.09 24.923 128.766 25.022 128.424 25.022C127.92 25.022 127.479 24.86 127.101 24.536C126.723 24.212 126.534 23.816 126.534 23.348C126.534 23.06 126.597 22.79 126.723 22.538L128.505 18.839L123.699 8.984C123.591 8.732 123.537 8.489 123.537 8.255C123.537 7.769 123.744 7.355 124.158 7.013C124.59 6.671 125.076 6.5 125.616 6.5C125.976 6.5 126.309 6.599 126.615 6.797C126.921 6.977 127.164 7.256 127.344 7.634L130.692 14.924L133.959 7.634ZM147.103 17.192C147.643 17.228 148.039 17.363 148.291 17.597C148.543 17.831 148.669 18.173 148.669 18.623C148.669 19.145 148.462 19.541 148.048 19.811C147.634 20.081 147.04 20.189 146.266 20.135L145.51 20.081C142.36 19.829 140.785 18.182 140.785 15.14V9.794H139.705C139.111 9.794 138.661 9.668 138.355 9.416C138.049 9.146 137.896 8.768 137.896 8.282C137.896 7.778 138.049 7.4 138.355 7.148C138.661 6.878 139.111 6.743 139.705 6.743H140.785V4.637C140.785 4.043 140.965 3.575 141.325 3.233C141.703 2.891 142.207 2.72 142.837 2.72C143.467 2.72 143.962 2.891 144.322 3.233C144.682 3.575 144.862 4.043 144.862 4.637V6.743H146.752C147.976 6.743 148.588 7.256 148.588 8.282C148.588 8.768 148.435 9.146 148.129 9.416C147.823 9.668 147.364 9.794 146.752 9.794H144.862V15.437C144.862 15.977 144.988 16.391 145.24 16.679C145.492 16.949 145.861 17.102 146.347 17.138L147.103 17.192ZM152.225 20.162C151.631 20.162 151.136 20 150.74 19.676C150.362 19.352 150.173 18.875 150.173 18.245V8.39C150.173 7.76 150.371 7.283 150.767 6.959C151.163 6.635 151.649 6.473 152.225 6.473C152.801 6.473 153.278 6.635 153.656 6.959C154.052 7.283 154.25 7.76 154.25 8.39V18.245C154.25 18.875 154.052 19.352 153.656 19.676C153.278 20 152.801 20.162 152.225 20.162ZM152.225 4.313C151.505 4.313 150.938 4.133 150.524 3.773C150.11 3.395 149.903 2.891 149.903 2.261C149.903 1.631 150.11 1.136 150.524 0.776C150.938 0.415999 151.505 0.235999 152.225 0.235999C152.927 0.235999 153.485 0.424999 153.899 0.802999C154.331 1.163 154.547 1.649 154.547 2.261C154.547 2.891 154.34 3.395 153.926 3.773C153.512 4.133 152.945 4.313 152.225 4.313ZM163.501 20.216C162.133 20.216 160.936 19.937 159.91 19.379C158.884 18.821 158.092 18.029 157.534 17.003C156.994 15.977 156.724 14.771 156.724 13.385C156.724 11.999 157.012 10.784 157.588 9.74C158.182 8.678 159.01 7.859 160.072 7.283C161.134 6.707 162.358 6.419 163.744 6.419C164.464 6.419 165.184 6.518 165.904 6.716C166.642 6.914 167.299 7.193 167.875 7.553C168.433 7.895 168.712 8.399 168.712 9.065C168.712 9.533 168.604 9.92 168.388 10.226C168.172 10.514 167.884 10.658 167.524 10.658C167.29 10.658 167.065 10.622 166.849 10.55C166.651 10.46 166.381 10.334 166.039 10.172C165.661 9.974 165.319 9.821 165.013 9.713C164.725 9.605 164.392 9.551 164.014 9.551C163.006 9.551 162.232 9.875 161.692 10.523C161.17 11.153 160.909 12.08 160.909 13.304C160.909 14.528 161.17 15.464 161.692 16.112C162.232 16.76 163.006 17.084 164.014 17.084C164.392 17.084 164.725 17.039 165.013 16.949C165.301 16.841 165.652 16.679 166.066 16.463C166.408 16.301 166.678 16.184 166.876 16.112C167.074 16.022 167.29 15.977 167.524 15.977C167.866 15.977 168.145 16.13 168.361 16.436C168.595 16.742 168.712 17.129 168.712 17.597C168.712 18.263 168.433 18.758 167.875 19.082C167.299 19.442 166.633 19.721 165.877 19.919C165.121 20.117 164.329 20.216 163.501 20.216ZM175.735 20.216C174.637 20.216 173.683 20.126 172.873 19.946C172.063 19.766 171.352 19.478 170.74 19.082C170.47 18.92 170.263 18.704 170.119 18.434C169.975 18.164 169.903 17.858 169.903 17.516C169.903 17.102 170.02 16.76 170.254 16.49C170.488 16.202 170.776 16.058 171.118 16.058C171.352 16.058 171.586 16.103 171.82 16.193C172.054 16.265 172.297 16.355 172.549 16.463C173.053 16.697 173.548 16.886 174.034 17.03C174.52 17.156 175.123 17.219 175.843 17.219C176.473 17.219 176.959 17.12 177.301 16.922C177.661 16.724 177.841 16.454 177.841 16.112C177.841 15.86 177.76 15.662 177.598 15.518C177.454 15.356 177.175 15.212 176.761 15.086C176.347 14.96 175.69 14.807 174.79 14.627C173.188 14.321 172.036 13.862 171.334 13.25C170.632 12.638 170.281 11.783 170.281 10.685C170.281 9.875 170.524 9.146 171.01 8.498C171.514 7.85 172.198 7.346 173.062 6.986C173.926 6.608 174.898 6.419 175.978 6.419C176.752 6.419 177.508 6.518 178.246 6.716C178.984 6.914 179.641 7.193 180.217 7.553C180.775 7.895 181.054 8.399 181.054 9.065C181.054 9.497 180.937 9.857 180.703 10.145C180.469 10.433 180.181 10.577 179.839 10.577C179.425 10.577 178.93 10.415 178.354 10.091C177.904 9.857 177.49 9.686 177.112 9.578C176.752 9.452 176.32 9.389 175.816 9.389C175.258 9.389 174.817 9.497 174.493 9.713C174.169 9.911 174.007 10.19 174.007 10.55C174.007 10.928 174.196 11.216 174.574 11.414C174.952 11.612 175.681 11.81 176.761 12.008C177.967 12.242 178.912 12.53 179.596 12.872C180.28 13.196 180.775 13.61 181.081 14.114C181.387 14.618 181.54 15.257 181.54 16.031C181.54 17.309 181.009 18.326 179.947 19.082C178.903 19.838 177.499 20.216 175.735 20.216Z" fill="white"/>
</svg>
