<svg width="24" height="24" viewBox="0 0 24 24" fill="none" xmlns="http://www.w3.org/2000/svg">
<path fill-rule="evenodd" clip-rule="evenodd" d="M9.26548 2.90001C10.318 2.90001 10.6931 2.90613 11.0347 2.99055C11.3595 3.07082 11.6691 3.20312 11.9516 3.38234C12.2488 3.57083 12.5125 3.83767 13.24 4.59829L19.1048 10.7297C19.6841 11.3353 20.081 11.7512 20.3634 12.0987C20.639 12.4378 20.7548 12.6524 20.8112 12.8356C20.9398 13.2534 20.9348 13.7008 20.797 14.1156C20.7365 14.2975 20.616 14.5095 20.3329 14.8424C20.0429 15.1835 19.6368 15.5905 19.0442 16.1831L16.1833 19.0441C15.5907 19.6367 15.1836 20.0428 14.8425 20.3328C14.5096 20.6158 14.2976 20.7364 14.1157 20.7968C13.701 20.9347 13.2535 20.9396 12.8357 20.8111C12.6526 20.7547 12.438 20.6389 12.0988 20.3632C11.7514 20.0809 11.3354 19.684 10.7298 19.1047L4.59841 13.2399C3.83779 12.5123 3.57095 12.2486 3.38246 11.9515C3.20325 11.669 3.07094 11.3594 2.99068 11.0346C2.90626 10.693 2.90013 10.3179 2.90013 9.26536V6.80001C2.90013 5.94508 2.90083 5.35801 2.93802 4.90291C2.97434 4.45831 3.04095 4.21948 3.12902 4.04663C3.33035 3.65149 3.65161 3.33023 4.04675 3.1289C4.2196 3.04083 4.45843 2.97422 4.90303 2.93789C5.35813 2.90071 5.9452 2.90001 6.80013 2.90001H9.26548ZM11.4666 1.24313C10.8859 1.09962 10.2781 1.09977 9.37511 1.09999L9.26548 1.10001H6.80013H6.76243C5.95438 1.1 5.29353 1.09999 4.75645 1.14387C4.20054 1.18929 3.69846 1.28617 3.22957 1.52509C2.49574 1.89899 1.89911 2.49562 1.52521 3.22945C1.2863 3.69834 1.18941 4.20041 1.14399 4.75633C1.10011 5.29341 1.10012 5.95426 1.10013 6.76231V6.80001V9.26536L1.10011 9.37499C1.09989 10.278 1.09974 10.8858 1.24325 11.4665C1.37012 11.9798 1.57925 12.4692 1.86252 12.9158C2.18295 13.4208 2.62226 13.8409 3.27497 14.4649L3.35421 14.5406L9.48558 20.4054L9.51249 20.4312C10.0846 20.9784 10.5529 21.4264 10.9636 21.7601C11.389 22.1059 11.8111 22.379 12.3062 22.5314C13.082 22.7702 13.913 22.761 14.6834 22.505C15.175 22.3416 15.5908 22.0592 16.0085 21.7041C16.4116 21.3613 16.8698 20.9031 17.4296 20.3433L17.4297 20.3432L17.4561 20.3169L20.317 17.4559L20.3434 17.4296L20.3434 17.4295C20.9032 16.8697 21.3615 16.4115 21.7042 16.0084C22.0593 15.5907 22.3417 15.1749 22.5051 14.6833C22.7611 13.9129 22.7703 13.0819 22.5315 12.3061C22.3791 11.8109 22.106 11.3889 21.7603 10.9635C21.4265 10.5528 20.9786 10.0845 20.4313 9.51237L20.4056 9.48545L14.5408 3.35409L14.465 3.27485C13.841 2.62214 13.421 2.18283 12.9159 1.8624C12.4694 1.57912 11.9799 1.37 11.4666 1.24313ZM6.90016 8.5C6.90016 7.61635 7.6165 6.9 8.50016 6.9C9.38381 6.9 10.1002 7.61635 10.1002 8.5C10.1002 9.38366 9.38381 10.1 8.50016 10.1C7.6165 10.1 6.90016 9.38366 6.90016 8.5ZM8.50016 5.1C6.62239 5.1 5.10016 6.62224 5.10016 8.5C5.10016 10.3778 6.62239 11.9 8.50016 11.9C10.3779 11.9 11.9002 10.3778 11.9002 8.5C11.9002 6.62224 10.3779 5.1 8.50016 5.1Z" fill="white"/>
</svg>
