<svg width="24" height="24" viewBox="0 0 24 24" fill="none" xmlns="http://www.w3.org/2000/svg">
<path d="M9.27196 4.43149L10.1427 4.65921V4.65921L9.27196 4.43149ZM6.80785 5.85415L7.04599 4.98622H7.04599L6.80785 5.85415ZM4.08 10.5789L4.71258 9.93871H4.71258L4.08 10.5789ZM4.08 13.4242L4.71258 14.0644H4.71258L4.08 13.4242ZM6.80785 18.149L6.56971 17.2811H6.56971L6.80785 18.149ZM9.27196 19.5716L8.40125 19.7994L9.27196 19.5716ZM14.7276 19.5716L15.5984 19.7994L14.7276 19.5716ZM17.1918 18.149L17.4299 17.2811H17.4299L17.1918 18.149ZM19.9196 13.4242L19.287 14.0644L19.9196 13.4242ZM19.9196 10.5789L19.287 9.93871V9.93871L19.9196 10.5789ZM17.1918 5.85415L16.9536 4.98622L17.1918 5.85415ZM14.7276 4.43149L15.5984 4.20376V4.20376L14.7276 4.43149ZM19.6048 6.30563L20.3248 5.76564L19.6048 6.30563ZM17.6916 5.71699L17.4535 4.84907L17.6916 5.71699ZM20.2903 10.2126L20.9229 10.8528L20.2903 10.2126ZM20.7365 8.26279L21.5639 7.90844L20.7365 8.26279ZM20.7354 15.7399L19.9082 15.3853L20.7354 15.7399ZM20.2894 13.7896L19.6568 14.4298L20.2894 13.7896ZM19.6024 17.6975L20.3222 18.2378L19.6024 17.6975ZM13.1289 21.4336L13.0231 20.5399L13.1289 21.4336ZM14.5969 20.0716L13.7262 19.8439L14.5969 20.0716ZM4.39728 17.6975L3.67749 18.2378L4.39728 17.6975ZM3.71034 13.7895L3.07777 13.1493L3.71034 13.7895ZM6.30807 5.71702L6.06993 6.58494L6.30807 5.71702ZM4.39492 6.30566L5.11493 6.84564L4.39492 6.30566ZM9.40273 20.0716L8.53202 20.2994L9.40273 20.0716ZM9.40357 3.92827L10.2743 4.156L9.40357 3.92827ZM3.70938 10.2127L3.07681 10.8529L3.70938 10.2127ZM14.596 3.92826L15.4667 3.70053L14.596 3.92826ZM11.9999 3.4C12.3461 3.4 12.6873 3.42042 13.0222 3.46004L13.2336 1.67251C12.8287 1.6246 12.417 1.6 11.9999 1.6V3.4ZM10.9774 3.46006C11.3124 3.42042 11.6535 3.4 11.9999 3.4V1.6C11.5827 1.6 11.1709 1.62461 10.7659 1.67253L10.9774 3.46006ZM8.53286 3.70055L8.40125 4.20376L10.1427 4.65921L10.2743 4.156L8.53286 3.70055ZM8.40125 4.20376C8.24623 4.79649 7.63682 5.14833 7.04599 4.98622L6.56971 6.72207C8.12735 7.14945 9.73398 6.22186 10.1427 4.65921L8.40125 4.20376ZM7.04599 4.98622L6.54621 4.84909L6.06993 6.58494L6.56971 6.72207L7.04599 4.98622ZM4.09045 8.61723C4.36155 7.98428 4.7066 7.39011 5.11493 6.84564L3.67491 5.76567C3.1815 6.42358 2.76406 7.14221 2.43583 7.90855L4.09045 8.61723ZM3.07681 10.8529L3.44743 11.2191L4.71258 9.93871L4.34196 9.57251L3.07681 10.8529ZM3.44743 11.2191C3.88324 11.6497 3.88324 12.3534 3.44743 12.784L4.71258 14.0644C5.86152 12.9292 5.86152 11.074 4.71258 9.93871L3.44743 11.2191ZM3.44743 12.784L3.07777 13.1493L4.34292 14.4297L4.71258 14.0644L3.44743 12.784ZM5.11707 17.1572C4.70832 16.6127 4.3629 16.0183 4.09148 15.3852L2.43708 16.0944C2.76569 16.861 3.18359 17.5798 3.67749 18.2378L5.11707 17.1572ZM6.54813 19.1535L7.04599 19.0169L6.56971 17.2811L6.07185 17.4177L6.54813 19.1535ZM7.04599 19.0169C7.63681 18.8548 8.24623 19.2066 8.40125 19.7994L10.1427 19.3439C9.73398 17.7813 8.12735 16.8537 6.56971 17.2811L7.04599 19.0169ZM8.40125 19.7994L8.53202 20.2994L10.2734 19.8439L10.1427 19.3439L8.40125 19.7994ZM11.9999 20.6C11.6532 20.6 11.3118 20.5795 10.9765 20.5398L10.7648 22.3273C11.1702 22.3753 11.5823 22.4 11.9999 22.4V20.6ZM13.0231 20.5399C12.6879 20.5795 12.3465 20.6 11.9999 20.6V22.4C12.4174 22.4 12.8295 22.3754 13.2348 22.3274L13.0231 20.5399ZM15.4676 20.2994L15.5984 19.7994L13.8569 19.3439L13.7262 19.8439L15.4676 20.2994ZM15.5984 19.7994C15.7534 19.2066 16.3628 18.8548 16.9536 19.0169L17.4299 17.2811C15.8723 16.8537 14.2656 17.7813 13.8569 19.3439L15.5984 19.7994ZM16.9536 19.0169L17.4516 19.1535L17.9279 17.4177L17.4299 17.2811L16.9536 19.0169ZM19.9082 15.3853C19.6368 16.0184 19.2914 16.6127 18.8826 17.1572L20.3222 18.2378C20.8161 17.5798 21.234 16.861 21.5626 16.0945L19.9082 15.3853ZM20.9219 13.1494L20.5522 12.784L19.287 14.0644L19.6568 14.4298L20.9219 13.1494ZM20.5522 12.784C20.1164 12.3534 20.1164 11.6497 20.5522 11.2191L19.287 9.93871C18.1381 11.074 18.1381 12.9292 19.287 14.0644L20.5522 12.784ZM20.5522 11.2191L20.9229 10.8528L19.6577 9.57242L19.287 9.93871L20.5522 11.2191ZM18.8848 6.84561C19.2931 7.39006 19.6381 7.98421 19.9092 8.61714L21.5639 7.90844C21.2356 7.14212 20.8182 6.42352 20.3248 5.76564L18.8848 6.84561ZM17.4535 4.84907L16.9536 4.98622L17.4299 6.72207L17.9298 6.58491L17.4535 4.84907ZM16.9536 4.98622C16.3628 5.14833 15.7534 4.79649 15.5984 4.20376L13.8569 4.65921C14.2656 6.22186 15.8723 7.14945 17.4299 6.72207L16.9536 4.98622ZM15.5984 4.20376L15.4667 3.70053L13.7253 4.15599L13.8569 4.65921L15.5984 4.20376ZM11.9998 16.4C14.4299 16.4 16.3998 14.43 16.3998 12H14.5998C14.5998 13.4359 13.4358 14.6 11.9998 14.6V16.4ZM7.59984 12C7.59984 14.43 9.56979 16.4 11.9998 16.4V14.6C10.5639 14.6 9.39984 13.4359 9.39984 12H7.59984ZM11.9998 7.59999C9.56979 7.59999 7.59984 9.56994 7.59984 12H9.39984C9.39984 10.564 10.5639 9.39999 11.9998 9.39999V7.59999ZM16.3998 12C16.3998 9.56994 14.4299 7.59999 11.9998 7.59999V9.39999C13.4358 9.39999 14.5998 10.564 14.5998 12H16.3998ZM20.3248 5.76564C19.6264 4.83448 18.4506 4.5755 17.4535 4.84907L17.9298 6.58491C18.3435 6.47139 18.7054 6.60641 18.8848 6.84561L20.3248 5.76564ZM20.9229 10.8528C21.6577 10.1267 22.0224 8.97895 21.5639 7.90844L19.9092 8.61714C20.0264 8.89069 19.963 9.27081 19.6577 9.57242L20.9229 10.8528ZM21.5626 16.0945C22.0216 15.0238 21.6569 13.8756 20.9219 13.1494L19.6568 14.4298C19.9621 14.7315 20.0255 15.1117 19.9082 15.3853L21.5626 16.0945ZM17.4516 19.1535C18.4483 19.427 19.6237 19.1683 20.3222 18.2378L18.8826 17.1572C18.7032 17.3963 18.3414 17.5312 17.9279 17.4177L17.4516 19.1535ZM13.2348 22.3274C14.3924 22.1903 15.2058 21.3002 15.4676 20.2994L13.7262 19.8439C13.6175 20.2595 13.3194 20.5048 13.0231 20.5399L13.2348 22.3274ZM3.67749 18.2378C4.37597 19.1683 5.55142 19.427 6.54813 19.1535L6.07185 17.4177C5.65826 17.5311 5.29651 17.3963 5.11707 17.1572L3.67749 18.2378ZM3.07777 13.1493C2.34276 13.8755 1.97812 15.0237 2.43708 16.0944L4.09148 15.3852C3.97421 15.1116 4.03758 14.7314 4.34292 14.4297L3.07777 13.1493ZM6.54621 4.84909C5.54915 4.57552 4.37326 4.8345 3.67491 5.76567L5.11493 6.84564C5.29433 6.60644 5.65619 6.47142 6.06993 6.58494L6.54621 4.84909ZM8.53202 20.2994C8.79378 21.3002 9.60721 22.1902 10.7648 22.3273L10.9765 20.5398C10.6802 20.5047 10.3821 20.2595 10.2734 19.8439L8.53202 20.2994ZM10.7659 1.67253C9.6082 1.80951 8.79465 2.6996 8.53286 3.70055L10.2743 4.156C10.383 3.7404 10.6811 3.49512 10.9774 3.46006L10.7659 1.67253ZM2.43583 7.90855C1.97733 8.97906 2.342 10.1268 3.07681 10.8529L4.34196 9.57251C4.03671 9.27089 3.97329 8.89078 4.09045 8.61723L2.43583 7.90855ZM13.0222 3.46004C13.3185 3.4951 13.6166 3.74038 13.7253 4.15599L15.4667 3.70053C15.205 2.69957 14.3914 1.80948 13.2336 1.67251L13.0222 3.46004Z" fill="white"/>
</svg>
